# xmcd
#
# Track frame offsets:
# 150
# 14832
# 33200
# 55115
# 73255
# 90007
# 110942
# 128895
# 149122
# 166975
# 187825
# 206737
# 226785
#
# Disc length: 3252 seconds
#
#
# Revision: 3
# Processed by: cddbd v1.5.2PL0 Copyright (c) Steve Scherf et al.
# Submitted via: FreeRIP 2.951 
#
DISCID=b70cb20d
DTITLE=Elvis Crespo - Wow flash - Wow Flash
DYEAR=2000
DGENRE=Merengue
TTITLE0=Wow Flash
TTITLE1=Bella Flor
TTITLE2=No Me Olvidarás
TTITLE3=Mi Sol, Mi Luna
TTITLE4=Me Mata
TTITLE5=Cuando Me Entrego Al Amor
TTITLE6=La Bolita
TTITLE7=La Noche
TTITLE8=Mares De Emoción
TTITLE9=Solos Tu Y Yo
TTITLE10=El Regalito
TTITLE11=No Me Olvidarás (Balada)
TTITLE12=Wow Flash (Pop)
EXTD=YEAR: 2000
EXTT0=
EXTT1=
EXTT2=
EXTT3=
EXTT4=
EXTT5=
EXTT6=
EXTT7=
EXTT8=
EXTT9=
EXTT10=
EXTT11=
EXTT12=
PLAYORDER=
